# xmcd
#
# Track frame offsets:
#	150
#	21420
#	38697
#	51635
#	71307
#	88005
#	102645
#	124952
#	140587
#	160825
#
# Disc length: 2449 seconds
#
# Revision: 1
# Processed by: cddbd v1.5.2PL0 Copyright (c) Steve Scherf et al.
# Submitted via: EZCDAudioConverter 6.0.8.1
#
DISCID=90098f0a
DTITLE=The Vaughan Brothers - Family Style
DYEAR=1990
DGENRE=Blues
TTITLE0=Hard To Be
TTITLE1=White Boots
TTITLE2=D/Fw
TTITLE3=Good Texan
TTITLE4=Hillbillies From Outerspace
TTITLE5=Long Way From Home
TTITLE6=Tick Tock
TTITLE7=Telephone Song
TTITLE8=Baboom - Mama Said
TTITLE9=Brothers
EXTD=
EXTT0=
EXTT1=
EXTT2=
EXTT3=
EXTT4=
EXTT5=
EXTT6=
EXTT7=
EXTT8=
EXTT9=
PLAYORDER=
